<?xml version="1.0" standalone="no"?>
<!DOCTYPE svg PUBLIC "-//W3C//DTD SVG 20010904//EN"
 "http://www.w3.org/TR/2001/REC-SVG-20010904/DTD/svg10.dtd">
<svg version="1.0" xmlns="http://www.w3.org/2000/svg"
 width="224.000000pt" height="224.000000pt" viewBox="0 0 224.000000 224.000000"
 preserveAspectRatio="xMidYMid meet">
<metadata>
Created by potrace 1.14, written by Peter Selinger 2001-2017
</metadata>
<g transform="translate(0.000000,224.000000) scale(0.100000,-0.100000)"
fill="#000000" stroke="none">
<path d="M979 2185 c-7 -6 -47 -13 -82 -14 -20 -1 -26 -5 -21 -13 6 -10 5 -10
-8 -1 -8 7 -18 10 -22 6 -3 -4 -15 -8 -26 -10 -10 -1 -38 -10 -62 -19 -24 -8
-49 -16 -55 -16 -7 -1 -13 -5 -13 -10 0 -4 -3 -7 -7 -6 -16 3 -63 -14 -74 -28
-6 -8 -15 -11 -20 -8 -5 3 -9 0 -9 -5 0 -6 -3 -10 -7 -9 -8 2 -41 -17 -95 -53
-15 -11 -32 -19 -38 -19 -6 0 -8 -4 -5 -10 3 -5 2 -10 -3 -10 -19 0 -162 -135
-162 -153 0 -4 -4 -5 -10 -2 -5 3 -10 -1 -10 -9 0 -9 -5 -16 -11 -16 -5 0 -8
-4 -5 -9 3 -5 -1 -12 -10 -15 -9 -4 -14 -9 -11 -13 4 -3 -4 -16 -16 -27 -13
-12 -21 -28 -19 -36 3 -8 1 -12 -3 -8 -4 4 -23 -25 -42 -65 -19 -40 -41 -85
-49 -100 -8 -16 -14 -37 -14 -48 0 -10 -4 -19 -9 -19 -6 0 -8 -9 -6 -20 2 -11
0 -20 -4 -20 -4 0 -8 -6 -9 -12 -1 -7 -4 -29 -7 -48 -3 -19 -7 -46 -9 -60 -2
-14 -5 -25 -6 -25 -2 0 -4 -60 -5 -132 -1 -73 1 -133 5 -133 4 0 6 -13 5 -29
-1 -15 3 -44 10 -63 6 -19 11 -42 9 -52 -1 -9 2 -16 7 -16 5 0 8 -3 7 -7 -3
-12 21 -84 41 -128 11 -22 17 -43 15 -46 -2 -4 3 -10 12 -13 8 -3 13 -10 9
-15 -3 -5 -1 -12 5 -16 6 -4 7 -11 4 -17 -4 -6 -2 -8 3 -5 6 4 16 -7 24 -24 7
-18 23 -42 36 -55 13 -13 23 -28 23 -34 0 -5 5 -10 10 -10 6 0 10 -5 10 -11 0
-6 13 -23 30 -39 16 -15 26 -30 23 -34 -3 -3 -1 -6 6 -6 7 0 30 -17 51 -38 51
-50 73 -67 82 -64 5 1 8 -2 8 -7 0 -9 65 -51 77 -50 3 1 10 -6 15 -15 5 -9 13
-14 19 -11 5 4 9 3 9 -2 0 -4 15 -14 32 -21 18 -8 45 -20 59 -27 14 -8 29 -12
33 -8 3 3 6 2 6 -4 0 -6 12 -13 28 -16 15 -3 52 -12 82 -21 30 -8 75 -17 101
-20 25 -3 53 -8 62 -12 10 -4 17 -1 17 6 0 9 4 9 13 3 17 -14 213 -7 287 9 8
2 21 8 29 12 10 7 12 5 6 -3 -6 -10 -3 -11 12 -2 11 5 33 12 48 15 16 3 31 10
35 16 4 7 10 11 14 10 18 -3 76 14 76 23 0 6 3 8 6 4 4 -3 13 1 21 9 9 8 22
13 29 10 8 -3 14 -1 14 5 0 5 8 12 18 16 9 3 24 12 32 19 8 7 21 14 29 16 7 2
28 16 46 32 18 15 36 28 39 27 3 0 29 23 57 52 29 29 56 51 61 49 5 -1 7 1 4
6 -3 5 3 15 12 24 32 29 97 118 87 118 -4 0 3 9 16 20 13 10 20 19 16 20 -5 0
-1 7 7 16 9 8 14 20 11 25 -4 5 -2 9 2 9 5 0 17 20 27 45 11 25 22 45 27 45 4
0 6 8 4 18 -1 9 2 22 7 28 5 7 11 20 13 30 2 11 8 34 14 52 5 17 7 32 4 32 -3
0 0 7 7 15 7 8 9 15 5 15 -4 0 -3 6 1 13 5 6 9 24 8 40 0 15 4 27 10 27 7 0 7
3 1 8 -12 8 -19 36 -8 29 5 -3 8 39 8 93 0 54 -3 96 -8 93 -5 -3 -4 3 1 14 6
11 7 25 2 34 -5 8 -10 34 -11 57 -2 23 -6 42 -9 42 -3 0 -7 14 -8 32 -2 17 -7
37 -12 43 -5 7 -7 15 -3 18 3 4 2 7 -4 7 -6 0 -9 9 -6 20 3 11 0 20 -6 20 -6
0 -11 9 -11 19 0 21 -68 154 -82 159 -4 2 -6 8 -2 13 3 5 0 9 -5 9 -6 0 -11 6
-11 14 0 8 -7 17 -16 20 -8 3 -13 9 -10 14 2 4 -13 27 -35 50 -21 24 -39 47
-39 52 0 6 -4 10 -8 10 -4 0 -32 22 -62 50 -95 86 -101 90 -110 90 -5 0 -13 8
-19 17 -5 10 -13 15 -16 11 -4 -4 -16 2 -28 13 -11 10 -27 19 -34 19 -8 0 -11
5 -7 12 4 6 3 8 -3 5 -5 -3 -29 5 -53 19 -24 14 -49 23 -57 20 -7 -3 -13 -2
-13 3 0 8 -32 21 -65 27 -5 1 -13 3 -17 4 -5 1 -12 4 -18 5 -5 1 -13 4 -17 5
-5 1 -11 2 -15 1 -5 0 -8 5 -8 12 0 8 -4 7 -10 -3 -5 -8 -10 -10 -10 -5 0 6
-17 12 -37 13 -20 2 -42 7 -49 13 -8 7 -14 6 -19 -1 -3 -6 -12 -7 -18 -3 -17
11 -160 11 -181 0 -13 -6 -16 -6 -12 2 7 11 3 15 -5 6z"/>
<path d="M2212 650 c0 -14 2 -19 5 -12 2 6 2 18 0 25 -3 6 -5 1 -5 -13z"/>
<path d="M2212 570 c0 -14 2 -19 5 -12 2 6 2 18 0 25 -3 6 -5 1 -5 -13z"/>
<path d="M2214 465 c1 -53 5 -80 14 -83 17 -5 16 105 -2 137 -12 22 -14 17
-12 -54z"/>
</g>
</svg>
